# This file uses centimeters as units for non-parametric coordinates.

mtllib Mesa1.mtl
g default
v -8.168731 1.635819 -5.928572
v -7.680732 1.635819 -5.499790
v -7.537965 1.635819 -4.866060
v -7.794961 1.635819 -4.269445
v -8.353556 1.635819 -3.937831
v -9.000387 1.635819 -3.997885
v -9.488386 1.635819 -4.426667
v -9.631153 1.635819 -5.060397
v -9.374157 1.635819 -5.657012
v -8.815561 1.635819 -5.988626
v -8.168731 1.552704 -5.928572
v -7.680732 1.552704 -5.499790
v -7.537965 1.552704 -4.866060
v -7.794961 1.552704 -4.269445
v -8.353556 1.552704 -3.937831
v -9.000387 1.552704 -3.997885
v -9.488386 1.552704 -4.426667
v -9.631153 1.552704 -5.060397
v -9.374157 1.552704 -5.657012
v -8.815561 1.552704 -5.988626
v -8.548553 0.285055 -5.060523
v -8.627838 0.285055 -5.061636
v -8.684689 0.285055 -5.006360
v -8.685802 0.285055 -4.927075
v -8.630526 0.285055 -4.870224
v -8.551240 0.285055 -4.869111
v -8.494390 0.285055 -4.924388
v -8.493277 0.285055 -5.003673
v -8.548553 0.584533 -5.060523
v -8.627838 0.584533 -5.061636
v -8.684689 0.584533 -5.006360
v -8.685802 0.584533 -4.927075
v -8.630526 0.584533 -4.870224
v -8.551240 0.584533 -4.869111
v -8.494390 0.584533 -4.924388
v -8.493277 0.584533 -5.003673
v -8.533088 0.669269 -5.096425
v -8.642290 0.669269 -5.097958
v -8.720591 0.669269 -5.021825
v -8.722124 0.669269 -4.912623
v -8.645991 0.669269 -4.834322
v -8.536789 0.669269 -4.832789
v -8.458488 0.669269 -4.908922
v -8.456955 0.669269 -5.018124
v -8.533088 0.813118 -5.096425
v -8.642290 0.813118 -5.097958
v -8.720591 0.813118 -5.021825
v -8.722124 0.813118 -4.912623
v -8.645991 0.813118 -4.834322
v -8.536789 0.813118 -4.832789
v -8.458488 0.813118 -4.908922
v -8.456955 0.813118 -5.018124
v -8.548553 0.897854 -5.060523
v -8.627838 0.897854 -5.061636
v -8.684689 0.897854 -5.006360
v -8.685802 0.897854 -4.927075
v -8.630526 0.897854 -4.870224
v -8.551240 0.897854 -4.869111
v -8.494390 0.897854 -4.924388
v -8.493277 0.897854 -5.003673
v -8.548553 1.564824 -5.060523
v -8.627838 1.564824 -5.061636
v -8.684689 1.564824 -5.006360
v -8.685802 1.564824 -4.927075
v -8.630526 1.564824 -4.870224
v -8.551240 1.564824 -4.869111
v -8.494390 1.564824 -4.924388
v -8.493277 1.564824 -5.003673
v -8.567030 0.286767 -4.936342
v -8.551860 0.286767 -4.971558
v -8.567030 0.420622 -4.936342
v -8.551860 0.420622 -4.971558
v -7.905642 0.012430 -4.651444
v -7.890472 0.012430 -4.686661
v -7.948336 0.078166 -4.669835
v -7.933166 0.078166 -4.705052
v -8.424293 0.286767 -4.874857
v -8.409124 0.286767 -4.910073
v -8.409586 0.420622 -4.910273
v -8.424756 0.420622 -4.875056
v -8.331158 0.151604 -4.834738
v -8.315988 0.151604 -4.869955
v -8.278143 0.251265 -4.853652
v -8.293312 0.251265 -4.818436
v -8.182891 0.111738 -4.770871
v -8.167721 0.111738 -4.806088
v -8.146361 0.186202 -4.796887
v -8.161531 0.186202 -4.761670
v -8.047916 0.012430 -4.712730
v -8.032746 0.012430 -4.747946
v -8.032746 0.112126 -4.747946
v -8.047916 0.112126 -4.712730
v -8.589623 0.286767 -5.014336
v -8.625679 0.286767 -5.001287
v -8.589623 0.420622 -5.014336
v -8.625679 0.420622 -5.001287
v -8.834693 0.012430 -5.691493
v -8.870749 0.012430 -5.678444
v -8.818873 0.078166 -5.647781
v -8.854929 0.078166 -5.634732
v -8.642513 0.286767 -5.160476
v -8.678569 0.286767 -5.147427
v -8.678397 0.420622 -5.146953
v -8.642341 0.420622 -5.160002
v -8.677023 0.151604 -5.255832
v -8.713079 0.151604 -5.242783
v -8.727102 0.251265 -5.281531
v -8.691046 0.251265 -5.294580
v -8.731962 0.111738 -5.407633
v -8.768018 0.111738 -5.394584
v -8.775932 0.186202 -5.416454
v -8.739876 0.186202 -5.429503
v -8.781975 0.012430 -5.545827
v -8.818031 0.012430 -5.532778
v -8.818031 0.112126 -5.532778
v -8.781975 0.112126 -5.545827
v -8.625559 0.286767 -4.934338
v -8.640846 0.286767 -4.969503
v -8.625559 0.420622 -4.934338
v -8.640846 0.420622 -4.969503
v -9.285992 0.012430 -4.647232
v -9.301279 0.012430 -4.682397
v -9.243359 0.078166 -4.665765
v -9.258646 0.078166 -4.700931
v -8.768090 0.286767 -4.872376
v -8.783377 0.286767 -4.907542
v -8.782915 0.420622 -4.907743
v -8.767628 0.420622 -4.872577
v -8.861091 0.151604 -4.831946
v -8.876378 0.151604 -4.867112
v -8.914169 0.251265 -4.850683
v -8.898881 0.251265 -4.815518
v -9.009143 0.111738 -4.767585
v -9.024430 0.111738 -4.802750
v -9.045759 0.186202 -4.793478
v -9.030472 0.186202 -4.758312
v -9.143923 0.012430 -4.708992
v -9.159211 0.012430 -4.744158
v -9.159211 0.112126 -4.744158
v -9.143923 0.112126 -4.708992
vt 0.988970 0.270289
vt 0.602870 0.270289
vt 0.602870 0.214021
vt 0.988970 0.214021
vt 0.988970 0.270289
vt 0.602870 0.270289
vt 0.602870 0.214021
vt 0.988970 0.214021
vt 0.988970 0.270289
vt 0.602870 0.270289
vt 0.602870 0.214021
vt 0.988970 0.214021
vt 0.988970 0.270289
vt 0.602870 0.270289
vt 0.602870 0.214021
vt 0.988970 0.214021
vt 0.988970 0.270289
vt 0.602870 0.270289
vt 0.602870 0.214021
vt 0.988970 0.214021
vt 0.988970 0.270289
vt 0.602870 0.270289
vt 0.602870 0.214021
vt 0.988970 0.214021
vt 0.988970 0.270289
vt 0.602870 0.270289
vt 0.602870 0.214021
vt 0.988970 0.214021
vt 0.988970 0.270289
vt 0.602870 0.270289
vt 0.602870 0.214021
vt 0.988970 0.214021
vt 0.988970 0.270289
vt 0.602870 0.270289
vt 0.602870 0.214021
vt 0.988970 0.214021
vt 0.988970 0.270289
vt 0.602870 0.270289
vt 0.602870 0.214021
vt 0.988970 0.214021
vt 0.367295 0.845256
vt 0.998214 0.629708
vt 0.757224 0.978471
vt 0.541676 0.978471
vt 0.367294 0.414160
vt 0.300686 0.629708
vt 0.757224 0.280944
vt 0.541676 0.280944
vt 0.541676 0.280944
vt 0.931606 0.845255
vt 0.931606 0.414160
vt 0.757224 0.280944
vt 0.300686 0.629708
vt 0.367294 0.414160
vt 0.541676 0.978471
vt 0.367295 0.845256
vt 0.241218 0.757086
vt 0.204360 0.757086
vt 0.204360 0.688153
vt 0.241218 0.688153
vt 0.278077 0.757086
vt 0.278077 0.688153
vt 0.314935 0.757086
vt 0.314935 0.688153
vt 0.056926 0.757086
vt 0.020068 0.757086
vt 0.020068 0.688153
vt 0.056926 0.688153
vt 0.093785 0.757086
vt 0.093785 0.688153
vt 0.130643 0.757086
vt 0.130643 0.688153
vt 0.167501 0.757086
vt 0.167501 0.688153
vt 0.241218 0.776590
vt 0.204360 0.776590
vt 0.278077 0.776590
vt 0.314935 0.776590
vt 0.314935 0.757086
vt 0.056926 0.776590
vt 0.020068 0.776590
vt 0.093785 0.776590
vt 0.130643 0.776590
vt 0.167501 0.776590
vt 0.241218 0.809700
vt 0.204360 0.809700
vt 0.278077 0.809700
vt 0.314935 0.809700
vt 0.314935 0.776590
vt 0.056926 0.809700
vt 0.020068 0.809700
vt 0.093785 0.809700
vt 0.130643 0.809700
vt 0.167501 0.809700
vt 0.241218 0.829205
vt 0.204360 0.829205
vt 0.278077 0.829205
vt 0.314935 0.829205
vt 0.314935 0.809700
vt 0.056926 0.829205
vt 0.020068 0.829205
vt 0.093785 0.829205
vt 0.130643 0.829205
vt 0.167501 0.829205
vt 0.241218 0.982725
vt 0.204360 0.982725
vt 0.278077 0.982725
vt 0.314935 0.982725
vt 0.314935 0.829205
vt 0.056926 0.982725
vt 0.020068 0.982725
vt 0.093785 0.982725
vt 0.130643 0.982725
vt 0.167501 0.982725
vt 0.569588 0.142332
vt 0.569588 0.142332
vt 0.583693 0.069428
vt 0.583693 0.069428
vt 0.220422 0.502891
vt 0.220422 0.502891
vt 0.092804 0.557061
vt 0.092804 0.557061
vt 0.254205 0.350961
vt 0.254205 0.350961
vt 0.372170 0.260306
vt 0.372170 0.260306
vt 0.456489 0.123423
vt 0.456489 0.123423
vt 0.269016 0.618522
vt 0.141812 0.672517
vt 0.324530 0.422560
vt 0.418531 0.316428
vt 0.492990 0.209415
vt 0.269016 0.618522
vt 0.141812 0.672517
vt 0.324530 0.422560
vt 0.418531 0.316428
vt 0.492990 0.209415
vt 0.569588 0.142332
vt 0.569588 0.142332
vt 0.583693 0.069428
vt 0.583693 0.069428
vt 0.220422 0.502891
vt 0.220422 0.502891
vt 0.092804 0.557061
vt 0.092804 0.557061
vt 0.254205 0.350961
vt 0.254205 0.350961
vt 0.372170 0.260306
vt 0.372170 0.260306
vt 0.456489 0.123423
vt 0.456489 0.123423
vt 0.269016 0.618522
vt 0.141812 0.672517
vt 0.324530 0.422560
vt 0.418531 0.316428
vt 0.492990 0.209415
vt 0.269016 0.618522
vt 0.141812 0.672517
vt 0.324530 0.422560
vt 0.418531 0.316428
vt 0.492990 0.209415
vt 0.569588 0.142332
vt 0.583693 0.069428
vt 0.583693 0.069428
vt 0.569588 0.142332
vt 0.220422 0.502891
vt 0.092804 0.557061
vt 0.092804 0.557061
vt 0.220422 0.502891
vt 0.254205 0.350961
vt 0.254205 0.350961
vt 0.372170 0.260306
vt 0.372170 0.260306
vt 0.456489 0.123423
vt 0.456489 0.123423
vt 0.269016 0.618522
vt 0.141812 0.672517
vt 0.324530 0.422560
vt 0.418531 0.316428
vt 0.492990 0.209415
vt 0.269016 0.618522
vt 0.141812 0.672517
vt 0.324530 0.422560
vt 0.418531 0.316428
vt 0.492990 0.209415
vt 0.931606 0.414160
vt 0.931606 0.845255
vt 0.757224 0.978471
vt 0.998214 0.629708
vn 0.859890 0.000000 -0.510479
vn 0.395614 0.000000 -0.918417
vn 0.395614 0.000000 -0.918417
vn 0.859890 0.000000 -0.510479
vn 0.995718 0.000000 0.092445
vn 0.995718 0.000000 0.092445
vn 0.751215 0.000000 0.660058
vn 0.751215 0.000000 0.660058
vn 0.219773 0.000000 0.975551
vn 0.219773 0.000000 0.975551
vn -0.395614 0.000000 0.918417
vn -0.395614 0.000000 0.918417
vn -0.859890 0.000000 0.510479
vn -0.859890 0.000000 0.510479
vn -0.995718 0.000000 -0.092445
vn -0.995718 0.000000 -0.092445
vn -0.751215 0.000000 -0.660058
vn -0.751215 0.000000 -0.660058
vn -0.219773 0.000000 -0.975551
vn -0.219773 0.000000 -0.975551
vn -0.000000 1.000000 -0.000000
vn 0.000000 1.000000 0.000000
vn -0.000000 1.000000 -0.000000
vn 0.000000 1.000000 0.000000
vn -0.000000 1.000000 -0.000000
vn -0.000000 1.000000 -0.000000
vn 0.000000 1.000000 0.000000
vn 0.000000 1.000000 0.000000
vn -0.000000 -1.000000 -0.000000
vn 0.000000 -1.000000 0.000000
vn 0.000000 -1.000000 0.000000
vn 0.000000 -1.000000 0.000000
vn -0.000000 -1.000000 -0.000000
vn -0.000000 -1.000000 -0.000000
vn 0.000000 -1.000000 0.000000
vn 0.000000 -1.000000 0.000000
vn -0.366832 -0.123829 -0.922009
vn 0.392569 -0.123829 -0.911348
vn 0.395614 0.000000 -0.918417
vn -0.369677 0.000000 -0.929160
vn -0.911348 -0.123829 -0.392569
vn -0.918417 -0.000000 -0.395614
vn -0.922009 -0.123829 0.366832
vn -0.929160 -0.000000 0.369677
vn -0.392569 -0.123829 0.911348
vn -0.395614 -0.000000 0.918417
vn 0.366832 -0.123829 0.922009
vn 0.369677 -0.000000 0.929160
vn 0.911348 -0.123829 0.392569
vn 0.918417 0.000000 0.395614
vn 0.922009 -0.123829 -0.366832
vn 0.929160 0.000000 -0.369677
vn -0.365875 -0.143055 -0.919604
vn 0.391545 -0.143055 -0.908971
vn -0.908971 -0.143055 -0.391545
vn -0.919604 -0.143055 0.365875
vn -0.391545 -0.143055 0.908971
vn 0.365875 -0.143055 0.919603
vn 0.908971 -0.143055 0.391545
vn 0.919604 -0.143055 -0.365875
vn -0.365875 0.143055 -0.919604
vn 0.391545 0.143055 -0.908971
vn -0.908971 0.143055 -0.391545
vn -0.919604 0.143055 0.365875
vn -0.391545 0.143055 0.908971
vn 0.365875 0.143055 0.919603
vn 0.908971 0.143055 0.391545
vn 0.919604 0.143055 -0.365875
vn -0.368879 0.065704 -0.927152
vn 0.394759 0.065704 -0.916432
vn -0.916432 0.065704 -0.394759
vn -0.927152 0.065704 0.368879
vn -0.394759 0.065704 0.916432
vn 0.368879 0.065704 0.927152
vn 0.916432 0.065704 0.394759
vn 0.927152 0.065704 -0.368879
vn -0.369677 0.000000 -0.929160
vn 0.395614 -0.000000 -0.918417
vn -0.918417 0.000000 -0.395614
vn -0.929160 0.000000 0.369677
vn -0.395614 0.000000 0.918417
vn 0.369678 0.000000 0.929160
vn 0.918417 -0.000000 0.395614
vn 0.929160 -0.000000 -0.369678
vn 0.558392 0.328629 -0.761709
vn -0.169913 0.328629 0.929049
vn -0.029666 0.251389 0.967432
vn 0.682631 0.251388 -0.686163
vn 0.289686 -0.198334 -0.936347
vn -0.481414 -0.198334 0.853759
vn -0.380270 -0.275801 0.882796
vn 0.380270 -0.275801 -0.882796
vn 0.134073 -0.362923 -0.922123
vn -0.577981 -0.362923 0.730907
vn 0.217411 -0.354718 -0.909345
vn -0.511443 -0.354718 0.782688
vn 0.193340 -0.286588 -0.938343
vn -0.549052 -0.286588 0.785118
vn 0.549154 0.363720 -0.752421
vn 0.380364 0.274975 -0.883013
vn 0.576599 0.275391 -0.769216
vn 0.530573 0.348864 -0.772519
vn 0.507985 0.324028 -0.798096
vn -0.169511 0.363720 0.915955
vn -0.380364 0.274975 0.883013
vn -0.162860 0.275391 0.947437
vn -0.196879 0.348864 0.916260
vn -0.230983 0.324028 0.917416
vn -0.937508 0.328629 0.114375
vn 0.793561 0.328629 -0.512117
vn 0.725535 0.251389 -0.640627
vn -0.967484 0.251388 -0.027906
vn -0.880871 -0.198334 0.429802
vn 0.951914 -0.198333 -0.233503
vn 0.903843 -0.275802 -0.327110
vn -0.903843 -0.275802 0.327110
vn -0.763978 -0.362923 0.533502
vn 0.928463 -0.362923 -0.079011
vn -0.811712 -0.354718 0.464003
vn 0.920662 -0.354718 -0.162961
vn -0.816373 -0.286588 0.501401
vn 0.948178 -0.286587 -0.137208
vn -0.924413 0.363720 0.114752
vn -0.904066 0.274975 0.327191
vn -0.955444 0.275391 0.106242
vn -0.926345 0.348864 0.142055
vn -0.929527 0.324028 0.176029
vn 0.783741 0.363720 -0.503446
vn 0.904066 0.274975 -0.327191
vn 0.802137 0.275391 -0.529845
vn 0.802698 0.348864 -0.483704
vn 0.826886 0.324028 -0.459635
vn -0.560935 0.328629 -0.759839
vn -0.684920 0.251388 -0.683878
vn 0.032898 0.251389 0.967327
vn 0.173016 0.328629 0.928476
vn -0.292813 -0.198334 -0.935374
vn -0.383217 -0.275802 -0.881520
vn 0.383218 -0.275801 0.881520
vn 0.484264 -0.198334 0.852146
vn -0.137153 -0.362923 -0.921670
vn 0.580419 -0.362923 0.728972
vn -0.220448 -0.354718 -0.908613
vn 0.514055 -0.354718 0.780975
vn -0.196474 -0.286588 -0.937691
vn 0.551672 -0.286588 0.783279
vn -0.551665 0.363720 -0.750582
vn -0.383312 0.274975 -0.881737
vn -0.579166 0.275391 -0.767285
vn -0.533151 0.348865 -0.770742
vn -0.510649 0.324028 -0.796394
vn 0.172570 0.363720 0.915384
vn 0.383312 0.274975 0.881737
vn 0.166025 0.275391 0.946887
vn 0.199940 0.348865 0.915597
vn 0.234047 0.324028 0.916639
vn -0.000001 1.000000 -0.000000
vn -0.000000 1.000000 -0.000000
vn 0.000000 -1.000000 0.000000
vn 0.000000 -1.000000 0.000000
s 1
g mesita02
usemtl initialShadingGroup
f 12/1/1 11/2/2 1/3/3 2/4/4
f 13/5/5 12/6/1 2/7/4 3/8/6
f 14/9/7 13/10/5 3/11/6 4/12/8
f 15/13/9 14/14/7 4/15/8 5/16/10
f 16/17/11 15/18/9 5/19/10 6/20/12
f 17/21/13 16/22/11 6/23/12 7/24/14
f 18/25/15 17/26/13 7/27/14 8/28/16
f 19/29/17 18/30/15 8/31/16 9/32/18
f 20/33/19 19/34/17 9/35/18 10/36/20
f 11/37/2 20/38/19 10/39/20 1/40/3
s 2
f 7/41/21 1/42/22 9/43/23 8/44/24
f 5/45/25 1/42/22 7/41/21 6/46/26
f 3/47/27 1/42/22 5/45/25 4/48/28
s 3
f 14/49/29 20/50/30 12/51/31 13/52/32
f 16/53/33 20/50/30 14/49/29 15/54/34
f 18/55/35 20/50/30 16/53/33 17/56/36
s 4
f 30/57/37 29/58/38 21/59/39 22/60/40
f 31/61/41 30/57/37 22/60/40 23/62/42
f 32/63/43 31/61/41 23/62/42 24/64/44
f 33/65/45 32/66/43 24/67/44 25/68/46
f 34/69/47 33/65/45 25/68/46 26/70/48
f 35/71/49 34/69/47 26/70/48 27/72/50
f 36/73/51 35/71/49 27/72/50 28/74/52
f 29/58/38 36/73/51 28/74/52 21/59/39
f 38/75/53 37/76/54 29/58/38 30/57/37
f 39/77/55 38/75/53 30/57/37 31/61/41
f 40/78/56 39/77/55 31/61/41 32/79/43
f 41/80/57 40/81/56 32/66/43 33/65/45
f 42/82/58 41/80/57 33/65/45 34/69/47
f 43/83/59 42/82/58 34/69/47 35/71/49
f 44/84/60 43/83/59 35/71/49 36/73/51
f 37/76/54 44/84/60 36/73/51 29/58/38
f 46/85/61 45/86/62 37/76/54 38/75/53
f 47/87/63 46/85/61 38/75/53 39/77/55
f 48/88/64 47/87/63 39/77/55 40/89/56
f 49/90/65 48/91/64 40/81/56 41/80/57
f 50/92/66 49/90/65 41/80/57 42/82/58
f 51/93/67 50/92/66 42/82/58 43/83/59
f 52/94/68 51/93/67 43/83/59 44/84/60
f 45/86/62 52/94/68 44/84/60 37/76/54
f 54/95/69 53/96/70 45/86/62 46/85/61
f 55/97/71 54/95/69 46/85/61 47/87/63
f 56/98/72 55/97/71 47/87/63 48/99/64
f 57/100/73 56/101/72 48/91/64 49/90/65
f 58/102/74 57/100/73 49/90/65 50/92/66
f 59/103/75 58/102/74 50/92/66 51/93/67
f 60/104/76 59/103/75 51/93/67 52/94/68
f 53/96/70 60/104/76 52/94/68 45/86/62
f 62/105/77 61/106/78 53/96/70 54/95/69
f 63/107/79 62/105/77 54/95/69 55/97/71
f 64/108/80 63/107/79 55/97/71 56/109/72
f 65/110/81 64/111/80 56/101/72 57/100/73
f 66/112/82 65/110/81 57/100/73 58/102/74
f 67/113/83 66/112/82 58/102/74 59/103/75
f 68/114/84 67/113/83 59/103/75 60/104/76
f 61/106/78 68/114/84 60/104/76 53/96/70
s 5
f 76/115/85 75/116/86 73/117/87 74/118/88
f 78/119/89 77/120/90 69/121/91 70/122/92
f 82/123/93 81/124/94 77/120/90 78/119/89
f 86/125/95 85/126/96 81/124/94 82/123/93
f 90/127/97 89/128/98 85/126/96 86/125/95
f 79/129/99 78/119/89 70/122/92 72/130/100
f 83/131/101 82/123/93 78/119/89 79/129/99
f 87/132/102 86/125/95 82/123/93 83/131/101
f 91/133/103 90/127/97 86/125/95 87/132/102
f 76/115/85 74/118/88 90/127/97 91/133/103
f 80/134/104 79/129/99 72/130/100 71/135/105
f 84/136/106 83/131/101 79/129/99 80/134/104
f 88/137/107 87/132/102 83/131/101 84/136/106
f 92/138/108 91/133/103 87/132/102 88/137/107
f 75/116/86 76/115/85 91/133/103 92/138/108
f 77/120/90 80/134/104 71/135/105 69/121/91
f 81/124/94 84/136/106 80/134/104 77/120/90
f 85/126/96 88/137/107 84/136/106 81/124/94
f 89/128/98 92/138/108 88/137/107 85/126/96
f 73/117/87 75/116/86 92/138/108 89/128/98
s 7
f 100/139/109 99/140/110 97/141/111 98/142/112
f 102/143/113 101/144/114 93/145/115 94/146/116
f 106/147/117 105/148/118 101/144/114 102/143/113
f 110/149/119 109/150/120 105/148/118 106/147/117
f 114/151/121 113/152/122 109/150/120 110/149/119
f 103/153/123 102/143/113 94/146/116 96/154/124
f 107/155/125 106/147/117 102/143/113 103/153/123
f 111/156/126 110/149/119 106/147/117 107/155/125
f 115/157/127 114/151/121 110/149/119 111/156/126
f 100/139/109 98/142/112 114/151/121 115/157/127
f 104/158/128 103/153/123 96/154/124 95/159/129
f 108/160/130 107/155/125 103/153/123 104/158/128
f 112/161/131 111/156/126 107/155/125 108/160/130
f 116/162/132 115/157/127 111/156/126 112/161/131
f 99/140/110 100/139/109 115/157/127 116/162/132
f 101/144/114 104/158/128 95/159/129 93/145/115
f 105/148/118 108/160/130 104/158/128 101/144/114
f 109/150/120 112/161/131 108/160/130 105/148/118
f 113/152/122 116/162/132 112/161/131 109/150/120
f 97/141/111 99/140/110 116/162/132 113/152/122
s 9
f 124/163/133 122/164/134 121/165/135 123/166/136
f 126/167/137 118/168/138 117/169/139 125/170/140
f 130/171/141 126/167/137 125/170/140 129/172/142
f 134/173/143 130/171/141 129/172/142 133/174/144
f 138/175/145 134/173/143 133/174/144 137/176/146
f 127/177/147 120/178/148 118/168/138 126/167/137
f 131/179/149 127/177/147 126/167/137 130/171/141
f 135/180/150 131/179/149 130/171/141 134/173/143
f 139/181/151 135/180/150 134/173/143 138/175/145
f 124/163/133 139/181/151 138/175/145 122/164/134
f 128/182/152 119/183/153 120/178/148 127/177/147
f 132/184/154 128/182/152 127/177/147 131/179/149
f 136/185/155 132/184/154 131/179/149 135/180/150
f 140/186/156 136/185/155 135/180/150 139/181/151
f 123/166/136 140/186/156 139/181/151 124/163/133
f 125/170/140 117/169/139 119/183/153 128/182/152
f 129/172/142 125/170/140 128/182/152 132/184/154
f 133/174/144 129/172/142 132/184/154 136/185/155
f 137/176/146 133/174/144 136/185/155 140/186/156
f 121/165/135 137/176/146 140/186/156 123/166/136
s 2
f 3/47/27 2/187/157 1/42/22
f 10/188/158 9/43/23 1/42/22
s 3
f 18/55/35 19/189/159 20/50/30
f 11/190/160 12/51/31 20/50/30
