# This file uses centimeters as units for non-parametric coordinates.

mtllib paredes_cuarto1.mtl
g default
v -9.999999 0.003387 9.999999
v 9.999999 0.003387 9.999999
v -9.999999 0.003387 -9.999999
v 9.999999 0.003387 -9.999999
vt 0.002416 0.483092
vt 0.317824 0.483092
vt 0.317824 0.798500
vt 0.002416 0.798500
vn 0.000000 1.000000 0.000000
vn 0.000000 1.000000 0.000000
vn 0.000000 1.000000 0.000000
vn 0.000000 1.000000 0.000000
s off
g C1:polySurface6 C1:ALL_WALLS_FLOOR_uvl:headusOBJexport
usemtl C1:lambert2SG
f 1/1/1 2/2/2 4/3/3 3/4/4
g default
v -9.935761 7.068901 -9.946258
v 10.045411 7.068901 -9.946258
v -9.935761 7.068901 -7.947994
v 10.045411 7.068901 -7.947994
v -9.935761 7.068901 -3.951469
v 10.045411 7.068901 -3.951469
v -9.935761 7.068901 0.045056
v 10.045411 7.068901 0.045056
v -9.935761 7.068901 4.041580
v 10.045411 7.068901 4.041580
v -9.935761 7.068901 8.038108
v 10.045411 7.068901 8.038108
v -9.935761 7.068901 10.036371
v 10.045411 7.068901 10.036371
v -9.935761 7.068901 -8.517094
v 10.045411 7.068901 -8.517094
v -9.935761 7.068901 -4.455334
v 10.045411 7.068901 -4.455334
v -9.935761 7.068901 -0.464300
v 10.045411 7.068901 -0.464300
v -9.935761 7.068901 3.509061
v 10.045411 7.068901 3.509061
v -9.935761 7.068901 7.491502
v 10.045411 7.068901 7.491502
v -9.935761 6.706269 -8.517094
v -9.935761 6.706269 -7.947994
v 10.045411 6.706269 -8.517094
v 10.045411 6.706269 -7.947994
v -9.935761 6.706269 -4.455334
v -9.935761 6.706269 -3.951469
v 10.045411 6.706269 -4.455334
v 10.045411 6.706269 -3.951469
v -9.935761 6.706269 -0.464300
v -9.935761 6.706269 0.045056
v 10.045411 6.706269 -0.464300
v 10.045411 6.706269 0.045056
v -9.935761 6.706269 3.509061
v -9.935761 6.706269 4.041580
v 10.045411 6.706269 3.509061
v 10.045411 6.706269 4.041580
v -9.935761 6.706269 7.491502
v -9.935761 6.706269 8.038108
v 10.045411 6.706269 7.491502
v 10.045411 6.706269 8.038108
vt 0.124203 0.045149
vt 0.124165 0.038852
vt 0.478612 0.034098
vt 0.478683 0.043417
vt 0.124629 0.140817
vt 0.124624 0.135157
vt 0.479105 0.133635
vt 0.479112 0.142096
vt 0.124228 0.236350
vt 0.124277 0.230625
vt 0.478759 0.232182
vt 0.478685 0.240754
vt 0.122951 0.331783
vt 0.123059 0.325785
vt 0.477515 0.330392
vt 0.477355 0.339293
vt 0.120880 0.426994
vt 0.121025 0.420918
vt 0.475430 0.428470
vt 0.475207 0.437442
vt 0.395168 0.478673
vt 0.080190 0.469522
vt 0.002416 0.433715
vt 0.474843 0.449292
vt 0.005850 0.032053
vt 0.084312 0.006376
vt 0.399398 0.002416
vt 0.478464 0.024107
vt 0.478749 0.060835
vt 0.479009 0.116379
vt 0.006338 0.120136
vt 0.006038 0.061096
vt 0.479041 0.159360
vt 0.478822 0.214885
vt 0.006132 0.214586
vt 0.006362 0.155900
vt 0.478454 0.257963
vt 0.477738 0.313115
vt 0.005064 0.308755
vt 0.005828 0.250317
vt 0.476967 0.356477
vt 0.475788 0.411314
vt 0.003155 0.403103
vt 0.004428 0.344720
vn 0.000000 -1.000000 0.000000
vn 0.000000 -1.000000 0.000000
vn 0.000000 -1.000000 0.000000
vn 0.000000 -1.000000 0.000000
vn 0.000000 -1.000000 0.000000
vn 0.000000 -1.000000 0.000000
vn 0.000000 -1.000000 0.000000
vn 0.000000 -1.000000 0.000000
vn 0.000000 -1.000000 0.000000
vn 0.000000 -1.000000 0.000000
vn 0.000000 -1.000000 0.000000
vn 0.000000 -1.000000 0.000000
vn 0.000000 -1.000000 0.000000
vn 0.000000 -1.000000 0.000000
vn 0.000000 -1.000000 0.000000
vn 0.000000 -1.000000 0.000000
vn 0.000000 -1.000000 0.000000
vn 0.000000 -1.000000 0.000000
vn 0.000000 -1.000000 0.000000
vn 0.000000 -1.000000 0.000000
vn 0.000000 -1.000000 0.000000
vn 0.000000 -1.000000 0.000000
vn 0.000000 -1.000000 0.000000
vn 0.000000 -1.000000 0.000000
vn 0.000000 -1.000000 0.000000
vn 0.000000 -1.000000 0.000000
vn 0.000000 -1.000000 0.000000
vn 0.000000 -1.000000 0.000000
vn 0.000000 -1.000000 0.000000
vn 0.000000 -1.000000 0.000000
vn 0.000000 -1.000000 0.000000
vn 0.000000 -1.000000 0.000000
vn 0.000000 -1.000000 0.000000
vn 0.000000 -1.000000 0.000000
vn 0.000000 -1.000000 0.000000
vn 0.000000 -1.000000 0.000000
vn 0.000000 -1.000000 0.000000
vn 0.000000 -1.000000 0.000000
vn 0.000000 -1.000000 0.000000
vn 0.000000 -1.000000 0.000000
vn 0.000000 -1.000000 0.000000
vn 0.000000 -1.000000 0.000000
vn 0.000000 -1.000000 0.000000
vn 0.000000 -1.000000 0.000000
vn 0.000000 0.000000 -1.000000
vn 0.000000 0.000000 -1.000000
vn 0.000000 0.000000 -1.000000
vn 0.000000 0.000000 -1.000000
vn -1.000000 0.000000 0.000000
vn -1.000000 0.000000 0.000000
vn -1.000000 0.000000 0.000000
vn -1.000000 0.000000 0.000000
vn 0.000000 0.000000 1.000000
vn 0.000000 0.000000 1.000000
vn 0.000000 0.000000 1.000000
vn 0.000000 0.000000 1.000000
vn 0.000000 0.000000 -1.000000
vn 0.000000 0.000000 -1.000000
vn 0.000000 0.000000 -1.000000
vn 0.000000 0.000000 -1.000000
vn -1.000000 0.000000 0.000000
vn -1.000000 0.000000 0.000000
vn -1.000000 0.000000 0.000000
vn -1.000000 0.000000 0.000000
vn 0.000000 0.000000 1.000000
vn 0.000000 0.000000 1.000000
vn 0.000000 0.000000 1.000000
vn 0.000000 0.000000 1.000000
vn 0.000000 0.000000 -1.000000
vn 0.000000 0.000000 -1.000000
vn 0.000000 0.000000 -1.000000
vn 0.000000 0.000000 -1.000000
vn -1.000000 0.000000 0.000000
vn -1.000000 0.000000 0.000000
vn -1.000000 0.000000 0.000000
vn -1.000000 0.000000 0.000000
vn 0.000000 0.000000 1.000000
vn 0.000000 0.000000 1.000000
vn 0.000000 0.000000 1.000000
vn 0.000000 0.000000 1.000000
vn 0.000000 0.000000 -1.000000
vn 0.000000 0.000000 -1.000000
vn 0.000000 0.000000 -1.000000
vn 0.000000 0.000000 -1.000000
vn -1.000000 0.000000 0.000000
vn -1.000000 0.000000 0.000000
vn -1.000000 0.000000 0.000000
vn -1.000000 0.000000 0.000000
vn 0.000000 0.000000 1.000000
vn 0.000000 0.000000 1.000000
vn 0.000000 0.000000 1.000000
vn 0.000000 0.000000 1.000000
vn 0.000000 0.000000 -1.000000
vn 0.000000 0.000000 -1.000000
vn 0.000000 0.000000 -1.000000
vn 0.000000 0.000000 -1.000000
vn -1.000000 0.000000 0.000000
vn -1.000000 0.000000 0.000000
vn -1.000000 0.000000 0.000000
vn -1.000000 0.000000 0.000000
vn 0.000000 0.000000 1.000000
vn 0.000000 0.000000 1.000000
vn 0.000000 0.000000 1.000000
vn 0.000000 0.000000 1.000000
s off
g C1:ALL_WALLS_FLOOR_uvl:headusOBJexport C1:polySurface2
usemtl C1:lambert2SG
f 30/5/5 29/6/6 31/7/7 32/8/8
f 34/9/9 33/10/10 35/11/11 36/12/12
f 38/13/13 37/14/14 39/15/15 40/16/16
f 42/17/17 41/18/18 43/19/19 44/20/20
f 46/21/21 45/22/22 47/23/23 48/24/24
f 18/25/25 17/26/26 15/27/27 16/28/28
f 19/29/29 5/30/30 6/31/31 20/32/32
f 8/33/33 22/34/34 21/35/35 7/36/36
f 10/37/37 24/38/38 23/39/39 9/40/40
f 12/41/41 26/42/42 25/43/43 11/44/44
f 14/45/45 28/46/46 27/47/47 13/48/48
f 29/6/49 19/29/50 20/32/51 31/7/52
f 7/36/53 19/29/54 29/6/55 30/5/56
f 30/5/57 32/8/58 8/33/59 7/36/60
f 33/10/61 21/35/62 22/34/63 35/11/64
f 9/40/65 21/35/66 33/10/67 34/9/68
f 34/9/69 36/12/70 10/37/71 9/40/72
f 37/14/73 23/39/74 24/38/75 39/15/76
f 11/44/77 23/39/78 37/14/79 38/13/80
f 38/13/81 40/16/82 12/41/83 11/44/84
f 41/18/85 25/43/86 26/42/87 43/19/88
f 13/48/89 25/43/90 41/18/91 42/17/92
f 42/17/93 44/20/94 14/45/95 13/48/96
f 45/22/97 27/47/98 28/46/99 47/23/100
f 15/27/101 27/47/102 45/22/103 46/21/104
f 46/21/105 48/24/106 16/28/107 15/27/108
g default
v 9.901446 -0.006428 -9.981286
v 9.901446 -0.006428 10.044190
v 9.901446 7.328814 -9.981286
v 9.901446 7.328814 10.044190
v 9.901446 7.328814 -1.924299
v 9.901446 -0.006428 -1.924299
v 9.901446 7.328814 -4.954935
v 9.901446 -0.006428 -4.954935
v 9.901446 5.569385 -4.954935
v 9.901446 5.569385 -1.924299
v 9.805423 -0.006428 -1.924299
v 9.805423 -0.006428 10.044190
v 9.805423 7.328814 10.044190
v 9.805423 7.328814 -1.924299
v 9.805423 5.569385 -1.924299
v 9.805423 5.569385 -4.954935
v 9.805423 7.328814 -4.954935
v 9.805423 -0.006428 -9.981286
v 9.805423 -0.006428 -4.954935
v 9.805423 7.328814 -9.981286
v 9.805423 7.328814 5.802324
v 9.901446 7.328814 5.802324
v 9.805423 7.328814 3.778613
v 9.901446 7.328814 3.778613
v 9.901446 -0.006428 5.802324
v 9.805423 -0.006428 5.802324
v 9.901446 -0.006428 3.778613
v 9.805423 -0.006428 3.778613
v 9.901446 3.098679 5.802324
v 9.901446 3.098679 3.778613
v 9.805423 3.098679 3.778613
v 9.805423 3.098679 5.802324
v 9.901446 6.344285 5.802324
v 9.901446 6.344285 3.778613
v 9.805423 6.344285 3.778613
v 9.805423 6.344285 5.802324
vt 0.736911 0.609741
vt 0.772974 0.592966
vt 0.824175 0.592980
vt 0.910414 0.609755
vt 0.910409 0.684598
vt 0.736889 0.684602
vt 0.558811 0.431369
vt 0.557258 0.479900
vt 0.492819 0.499854
vt 0.495545 0.410519
vt 0.669246 0.319968
vt 0.647018 0.399431
vt 0.495727 0.319968
vt 0.642247 0.119062
vt 0.556316 0.158657
vt 0.491756 0.139097
vt 0.485507 0.029711
vt 0.520289 0.005257
vt 0.571395 0.002416
vt 0.658760 0.020076
vt 0.558156 0.207184
vt 0.495014 0.228408
vt 0.669241 0.317936
vt 0.495724 0.318954
vt 0.646547 0.238605
vt 0.910410 0.686097
vt 0.736891 0.686131
vt 0.643433 0.518954
vt 0.660562 0.617835
vt 0.573310 0.636040
vt 0.522187 0.633518
vt 0.487253 0.609282
vt 0.879253 0.715593
vt 0.915422 0.693241
vt 0.915166 0.764329
vt 0.879111 0.747538
vt 0.736715 0.538647
vt 0.772867 0.561025
vt 0.741655 0.764327
vt 0.827892 0.747535
vt 0.915172 0.839170
vt 0.741652 0.839170
vt 0.741546 0.693237
vt 0.827831 0.715584
vt 0.824212 0.561044
vt 0.910485 0.538651
vn -1.000000 0.000000 0.000000
vn -1.000000 0.000000 0.000000
vn -1.000000 0.000000 0.000000
vn -1.000000 0.000000 0.000000
vn -1.000000 0.000000 0.000000
vn -1.000000 0.000000 0.000000
vn -1.000000 0.000000 0.000000
vn -1.000000 0.000000 0.000000
vn -1.000000 0.000000 0.000000
vn -1.000000 0.000000 0.000000
vn -1.000000 0.000000 0.000000
vn -1.000000 0.000000 0.000000
vn -1.000000 0.000000 0.000000
vn -1.000000 0.000000 0.000000
vn -1.000000 0.000000 0.000000
vn 1.000000 0.000000 0.000000
vn 1.000000 0.000000 0.000000
vn 1.000000 0.000000 0.000000
vn 1.000000 0.000000 0.000000
vn 1.000000 0.000000 0.000000
vn 1.000000 0.000000 0.000000
vn 1.000000 0.000000 0.000000
vn 1.000000 0.000000 0.000000
vn 1.000000 0.000000 0.000000
vn 1.000000 0.000000 0.000000
vn 1.000000 0.000000 0.000000
vn 1.000000 0.000000 0.000000
vn 1.000000 0.000000 0.000000
vn 1.000000 0.000000 0.000000
vn 1.000000 0.000000 0.000000
vn 1.000000 0.000000 0.000000
vn 0.000000 0.000000 1.000000
vn 0.000000 0.000000 1.000000
vn 0.000000 0.000000 1.000000
vn 0.000000 0.000000 1.000000
vn 0.000000 0.000000 -1.000000
vn 0.000000 0.000000 -1.000000
vn 0.000000 0.000000 -1.000000
vn 0.000000 0.000000 -1.000000
vn -1.000000 0.000000 0.000000
vn -1.000000 0.000000 0.000000
vn -1.000000 0.000000 0.000000
vn -1.000000 0.000000 0.000000
vn -1.000000 0.000000 0.000000
vn -1.000000 0.000000 0.000000
vn -1.000000 0.000000 0.000000
vn 1.000000 0.000000 0.000000
vn 1.000000 0.000000 0.000000
vn 1.000000 0.000000 0.000000
vn 1.000000 0.000000 0.000000
vn -1.000000 0.000000 0.000000
vn -1.000000 0.000000 0.000000
vn -1.000000 0.000000 0.000000
vn -1.000000 0.000000 0.000000
vn 1.000000 0.000000 0.000000
vn 1.000000 0.000000 0.000000
vn 1.000000 0.000000 0.000000
vn 1.000000 0.000000 0.000000
vn 1.000000 0.000000 0.000000
vn 1.000000 0.000000 0.000000
vn 1.000000 0.000000 0.000000
vn 1.000000 0.000000 0.000000
vn 1.000000 0.000000 0.000000
vn 1.000000 0.000000 0.000000
vn -1.000000 0.000000 0.000000
vn -1.000000 0.000000 0.000000
vn -1.000000 0.000000 0.000000
vn -1.000000 0.000000 0.000000
s off
g C1:ALL_WALLS_FLOOR_uvl:headusOBJexport C1:polySurface4
usemtl C1:lambert2SG
f 69/49/109 84/50/110 80/51/111 74/52/112 60/53/113 61/54/114
f 64/55/115 63/56/116 62/57/117 65/58/118
f 66/59/119 67/60/120 64/55/121 65/58/122 68/61/123
f 54/62/124 58/63/125 53/64/126 72/65/127 82/66/128 78/67/129 75/68/130
f 57/69/131 55/70/132 53/64/133 58/63/134
f 49/71/135 51/72/136 55/70/137 57/69/138 56/73/139
f 50/74/140 52/75/141 61/54/142 60/53/143
f 51/72/144 49/71/145 66/59/146 68/61/147
f 59/76/148 76/77/149 79/78/150 83/79/151 71/80/152 62/57/153 63/56/154
f 82/81/155 72/82/156 70/83/157 81/84/158
f 71/85/159 83/86/160 84/50/161 69/49/162
f 73/87/163 77/88/164 81/84/165 70/83/166 52/89/167 50/90/168
f 75/91/169 78/92/170 77/88/171 73/87/172
f 79/93/173 76/94/174 74/52/175 80/51/176
g default
v 9.977777 -0.006428 10.017771
v -10.003807 -0.006428 10.017771
v 9.977777 7.328814 10.017771
v -10.003807 7.328814 10.017771
v 9.977777 -0.006428 9.921750
v -10.003807 -0.006428 9.921750
v -10.003807 7.328814 9.921750
v 9.977777 7.328814 9.921750
vt 0.677843 0.181160
vt 0.992961 0.181160
vt 0.992961 0.354679
vt 0.677843 0.354679
vt 0.664251 0.359904
vt 0.664251 0.533423
vt 0.979369 0.533423
vt 0.979369 0.359904
vt 0.994475 0.181160
vt 0.994475 0.354679
vt 0.676329 0.354679
vt 0.676329 0.181160
vn 0.000000 0.000000 -1.000000
vn 0.000000 0.000000 -1.000000
vn 0.000000 0.000000 -1.000000
vn 0.000000 0.000000 -1.000000
vn 0.000000 0.000000 1.000000
vn 0.000000 0.000000 1.000000
vn 0.000000 0.000000 1.000000
vn 0.000000 0.000000 1.000000
vn -1.000000 0.000000 0.000000
vn -1.000000 0.000000 0.000000
vn -1.000000 0.000000 0.000000
vn -1.000000 0.000000 0.000000
vn 1.000000 0.000000 0.000000
vn 1.000000 0.000000 0.000000
vn 1.000000 0.000000 0.000000
vn 1.000000 0.000000 0.000000
s off
g C1:ALL_WALLS_FLOOR_uvl:headusOBJexport C1:polySurface5
usemtl C1:lambert2SG
f 89/95/177 90/96/178 91/97/179 92/98/180
f 85/99/181 87/100/182 88/101/183 86/102/184
f 86/103/185 88/104/186 91/97/187 90/96/188
f 87/105/189 85/106/190 89/95/191 92/98/192
g default
v -9.902222 -0.006428 -9.981286
v -9.902222 -0.006428 10.044190
v -9.902222 7.328814 -9.981286
v -9.902222 7.328814 10.044190
v -9.902222 7.328814 0.645829
v -9.902222 -0.006428 0.645829
v -9.902222 7.328814 -2.384807
v -9.902222 -0.006428 -2.384807
v -9.902222 5.569385 -2.384807
v -9.902222 5.569385 0.645829
v -9.998243 -0.006428 0.645829
v -9.998243 -0.006428 10.044190
v -9.998243 7.328814 10.044190
v -9.998243 7.328814 0.645829
v -9.998243 5.569385 0.645829
v -9.998243 5.569385 -2.384807
v -9.998243 7.328814 -2.384807
v -9.998243 -0.006428 -9.981286
v -9.998243 -0.006428 -2.384807
v -9.998243 7.328814 -9.981286
vt 0.649510 0.801225
vt 0.737640 0.800541
vt 0.735724 0.966923
vt 0.652156 0.966982
vt 0.652192 0.941414
vt 0.544081 0.941149
vt 0.544720 0.967811
vt 0.420959 0.796265
vt 0.541127 0.799407
vt 0.423583 0.969765
vt 0.582727 0.641633
vt 0.533875 0.729450
vt 0.570587 0.793251
vt 0.636878 0.793207
vt 0.637291 0.619687
vt 0.486410 0.728895
vt 0.455519 0.792046
vt 0.327006 0.615942
vt 0.323671 0.789430
vt 0.446362 0.640223
vt 0.737639 0.793407
vt 0.737185 0.966927
vt 0.422127 0.969790
vt 0.419383 0.796292
vn -1.000000 0.000000 0.000000
vn -1.000000 0.000000 0.000000
vn -1.000000 0.000000 0.000000
vn -1.000000 0.000000 0.000000
vn -1.000000 0.000000 0.000000
vn -1.000000 0.000000 0.000000
vn -1.000000 0.000000 0.000000
vn -1.000000 0.000000 0.000000
vn -1.000000 0.000000 0.000000
vn -1.000000 0.000000 0.000000
vn -1.000000 0.000000 0.000000
vn -1.000000 0.000000 0.000000
vn -1.000000 0.000000 0.000000
vn -1.000000 0.000000 0.000000
vn 1.000000 0.000000 0.000000
vn 1.000000 0.000000 0.000000
vn 1.000000 0.000000 0.000000
vn 1.000000 0.000000 0.000000
vn 1.000000 0.000000 0.000000
vn 1.000000 0.000000 0.000000
vn 1.000000 0.000000 0.000000
vn 1.000000 0.000000 0.000000
vn 1.000000 0.000000 0.000000
vn 1.000000 0.000000 0.000000
vn 1.000000 0.000000 0.000000
vn 1.000000 0.000000 0.000000
vn 1.000000 0.000000 0.000000
vn 1.000000 0.000000 0.000000
vn 0.000000 0.000000 1.000000
vn 0.000000 0.000000 1.000000
vn 0.000000 0.000000 1.000000
vn 0.000000 0.000000 1.000000
vn 0.000000 0.000000 -1.000000
vn 0.000000 0.000000 -1.000000
vn 0.000000 0.000000 -1.000000
vn 0.000000 0.000000 -1.000000
s off
g C1:ALL_WALLS_FLOOR_uvl:headusOBJexport C1:polySurface1
usemtl C1:lambert2SG
f 103/107/193 104/108/194 105/109/195 106/110/196 107/111/197
f 108/112/198 107/111/199 106/110/200 109/113/201
f 110/114/202 111/115/203 108/112/204 109/113/205 112/116/206
f 98/117/207 102/118/208 97/119/209 96/120/210 94/121/211
f 101/122/212 99/123/213 97/119/214 102/118/215
f 93/124/216 95/125/217 99/123/218 101/122/219 100/126/220
f 94/127/221 96/128/222 105/109/223 104/108/224
f 95/129/225 93/130/226 110/114/227 112/116/228
g default
v -9.977777 -0.006428 -10.007658
v 10.003807 -0.006428 -10.007658
v -9.977777 7.328814 -10.007658
v 10.003807 7.328814 -10.007658
v -9.977777 -0.006428 -9.911639
v 10.003807 -0.006428 -9.911639
v 10.003807 7.328814 -9.911639
v -9.977777 7.328814 -9.911639
vt 0.665765 0.002416
vt 0.980883 0.002416
vt 0.980883 0.175935
vt 0.665765 0.175935
vt 0.420290 0.799517
vt 0.420290 0.973037
vt 0.735408 0.973037
vt 0.735408 0.799517
vt 0.982397 0.002416
vt 0.982397 0.175935
vt 0.664251 0.175935
vt 0.664251 0.002416
vn 0.000000 0.000000 1.000000
vn 0.000000 0.000000 1.000000
vn 0.000000 0.000000 1.000000
vn 0.000000 0.000000 1.000000
vn 0.000000 0.000000 -1.000000
vn 0.000000 0.000000 -1.000000
vn 0.000000 0.000000 -1.000000
vn 0.000000 0.000000 -1.000000
vn 1.000000 0.000000 0.000000
vn 1.000000 0.000000 0.000000
vn 1.000000 0.000000 0.000000
vn 1.000000 0.000000 0.000000
vn -1.000000 0.000000 0.000000
vn -1.000000 0.000000 0.000000
vn -1.000000 0.000000 0.000000
vn -1.000000 0.000000 0.000000
s off
g C1:ALL_WALLS_FLOOR_uvl:headusOBJexport C1:polySurface3
usemtl C1:lambert2SG
f 117/131/229 118/132/230 119/133/231 120/134/232
f 113/135/233 115/136/234 116/137/235 114/138/236
f 114/139/237 116/140/238 119/133/239 118/132/240
f 115/141/241 113/142/242 117/131/243 120/134/244
